<mxfile host="app.diagrams.net" modified="2024-01-30T14:47:00.700Z" agent="Mozilla/5.0 (Windows NT 10.0; Win64; x64) AppleWebKit/537.36 (KHTML, like Gecko) Chrome/121.0.0.0 Safari/537.36" version="23.0.2" etag="fzlhg9CkB0Oasu9KEdA3" type="github">
  <diagram name="페이지-1" id="2j_Kgk0AOY-v1cz8bwEK">
    <mxGraphModel>
      <root>
        <mxCell id="0" />
        <mxCell id="1" parent="0" />
      </root>
    </mxGraphModel>
  </diagram>
</mxfile>
